# xmcd
#
# Track frame offsets:
#	150
#	13402
#	27937
#	44710
#	57763
#	71193
#	84525
#	100347
#	113624
#	128571
#	143492
#	156979
#	172131
#	185277
#	199738
#
# Disc length: 2931 seconds
#
# Revision: 1
# Processed by: cddbd v1.5.2PL0 Copyright (c) Steve Scherf et al.
# Submitted via: audiograbber 1.83.01
#
DISCID=d30b710f
DTITLE=JOSÉ WILLIAMS - TRIBUTO A NELSON GONÇALVES-VOZ E  VIOLÃO - AO VIVO
DYEAR=1900
DGENRE=MPB
TTITLE0=DOIS AMORES
TTITLE1=BORRASCA
TTITLE2=ÊXTASE
TTITLE3=SOMOS IGUAIS
TTITLE4=SE NINGUÉM TE AMA
TTITLE5=ATIRASTE UMA PEDRA
TTITLE6=MÁGOAS DE CABOCLO
TTITLE7=AS ROSAS NÃO FALAM
TTITLE8=MEU DILEMA
TTITLE9=A VOLTA DO BOÊMIO
TTITLE10=NAQUELA MESA
TTITLE11=CAMISOLA DO DIA
TTITLE12=CAMINHEMOS
TTITLE13=COM QUE ROUPA
TTITLE14=HOMENAGEM
EXTD=
EXTT0=
EXTT1=
EXTT2=
EXTT3=
EXTT4=
EXTT5=
EXTT6=
EXTT7=
EXTT8=
EXTT9=
EXTT10=
EXTT11=
EXTT12=
EXTT13=
EXTT14=
PLAYORDER=
